<svg height="30" width="30" xmlns="http://www.w3.org/2000/svg" viewBox="0 0 512 512"><path d="M309 390H27c-15 0-27-12-27-27V95c0-15 12-27 27-27h256c15 0 26 12 26 27v295z" fill="#ffd15c"/><path d="M505 218l-69-69c-4-4-10-7-17-7H309v248h175c15 0 28-12 28-27V235c0-8-2-13-7-17z" fill="#f3705a"/><path d="M0 343v20c0 15 12 26 27 26h457c15 0 28-12 28-27v-20H0v1z" fill="#344a5e"/><g fill="#415a6b"><path d="M476 272v-33l-61-62h-69v95z"/><circle cx="130.1" cy="377.6" r="66.1"/></g><circle cx="130.1" cy="377.6" r="32" fill="#e8eae9"/><circle cx="398.9" cy="377.6" r="66.1" fill="#415a6b"/><circle cx="398.9" cy="377.6" r="32" fill="#e8eae9"/><g fill="#f7b64c"><path d="M67 113c-13 0-23 11-23 24v137c0 13 10 24 23 24s24-11 24-24V137c-1-13-11-24-24-24zM154 113c-13 0-24 11-24 24v137c0 13 11 24 24 24 12 0 23-11 23-24V137c-1-13-11-24-23-24zM240 113c-13 0-23 11-23 24v137c0 13 10 24 23 24s23-11 23-24V137c-1-13-10-24-23-24z"/></g></svg>
